<?xml version="1.0" encoding="UTF-8" standalone="no"?>
<!-- Created with Inkscape (http://www.inkscape.org/) -->

<svg
   version="1.1"
   id="svg645"
   xml:space="preserve"
   width="682.66669"
   height="682.66669"
   viewBox="0 0 682.66669 682.66669"
   xmlns="http://www.w3.org/2000/svg"
   xmlns:svg="http://www.w3.org/2000/svg"><defs
     id="defs649"><clipPath
       clipPathUnits="userSpaceOnUse"
       id="clipPath659"><path
         d="M 0,512 H 512 V 0 H 0 Z"
         id="path657" /></clipPath><clipPath
       clipPathUnits="userSpaceOnUse"
       id="clipPath679"><path
         d="M 0,512 H 512 V 0 H 0 Z"
         id="path677" /></clipPath><clipPath
       clipPathUnits="userSpaceOnUse"
       id="clipPath703"><path
         d="M 0,512 H 512 V 0 H 0 Z"
         id="path701" /></clipPath></defs><g
     id="g651"
     transform="matrix(1.3333333,0,0,-1.3333333,0,682.66667)"><g
       id="g653"><g
         id="g655"
         clip-path="url(#clipPath659)"><g
           id="g661"
           transform="translate(433.3779,279.7139)"><path
             d="M 0,0 H 44.908"
             style="fill:none;stroke:#000000;stroke-width:20;stroke-linecap:round;stroke-linejoin:round;stroke-miterlimit:10;stroke-dasharray:none;stroke-opacity:1"
             id="path663" /></g><g
           id="g665"
           transform="translate(256,457.0918)"><path
             d="M 0,0 V 44.908"
             style="fill:none;stroke:#000000;stroke-width:20;stroke-linecap:round;stroke-linejoin:round;stroke-miterlimit:10;stroke-dasharray:none;stroke-opacity:1"
             id="path667" /></g></g></g><g
       id="g669"
       transform="translate(130.5747,405.1392)"><path
         d="M 0,0 -31.755,31.755"
         style="fill:none;stroke:#000000;stroke-width:20;stroke-linecap:round;stroke-linejoin:round;stroke-miterlimit:10;stroke-dasharray:none;stroke-opacity:1"
         id="path671" /></g><g
       id="g673"><g
         id="g675"
         clip-path="url(#clipPath679)"><g
           id="g681"
           transform="translate(78.6221,279.7139)"><path
             d="M 0,0 H -44.908"
             style="fill:none;stroke:#000000;stroke-width:20;stroke-linecap:round;stroke-linejoin:round;stroke-miterlimit:10;stroke-dasharray:none;stroke-opacity:1"
             id="path683" /></g></g></g><g
       id="g685"
       transform="translate(130.5747,154.2886)"><path
         d="M 0,0 -31.755,-31.755"
         style="fill:none;stroke:#000000;stroke-width:20;stroke-linecap:round;stroke-linejoin:round;stroke-miterlimit:10;stroke-dasharray:none;stroke-opacity:1"
         id="path687" /></g><g
       id="g689"
       transform="translate(381.4248,154.2886)"><path
         d="M 0,0 31.755,-31.755"
         style="fill:none;stroke:#000000;stroke-width:20;stroke-linecap:round;stroke-linejoin:round;stroke-miterlimit:10;stroke-dasharray:none;stroke-opacity:1"
         id="path691" /></g><g
       id="g693"
       transform="translate(381.4248,405.1392)"><path
         d="M 0,0 31.755,31.755"
         style="fill:none;stroke:#000000;stroke-width:20;stroke-linecap:round;stroke-linejoin:round;stroke-miterlimit:10;stroke-dasharray:none;stroke-opacity:1"
         id="path695" /></g><g
       id="g697"><g
         id="g699"
         clip-path="url(#clipPath703)"><g
           id="g705"
           transform="translate(388.4697,279.7139)"><path
             d="M 0,0 C 0,74.409 -61.35,134.49 -136.227,132.418 -208.02,130.431 -264.666,72.334 -264.938,0.514 c -0.133,-34.935 13.26,-66.737 35.24,-90.476 15.844,-17.113 24.918,-39.402 24.918,-62.724 l -0.581,-60.58 c -0.084,-8.771 7.002,-15.926 15.774,-15.926 h 114.233 c 8.772,0 15.859,7.157 15.773,15.929 l -0.578,59.172 c 0,23.618 8.588,46.584 24.68,63.872 C -13.467,-66.569 0,-34.859 0,0 Z"
             style="fill:none;stroke:#000000;stroke-width:20;stroke-linecap:round;stroke-linejoin:round;stroke-miterlimit:10;stroke-dasharray:none;stroke-opacity:1"
             id="path707" /></g><g
           id="g709"
           transform="translate(328.6406,92.5874)"><path
             d="M 0,0 H -145.282"
             style="fill:none;stroke:#000000;stroke-width:20;stroke-linecap:round;stroke-linejoin:round;stroke-miterlimit:10;stroke-dasharray:none;stroke-opacity:1"
             id="path711" /></g><g
           id="g713"
           transform="translate(216,134.6533)"><path
             d="M 0,0 H -32.64"
             style="fill:none;stroke:#000000;stroke-width:20;stroke-linecap:round;stroke-linejoin:round;stroke-miterlimit:10;stroke-dasharray:none;stroke-opacity:1"
             id="path715" /></g><g
           id="g717"
           transform="translate(328.6396,134.6533)"><path
             d="M 0,0 H -32.64"
             style="fill:none;stroke:#000000;stroke-width:20;stroke-linecap:round;stroke-linejoin:round;stroke-miterlimit:10;stroke-dasharray:none;stroke-opacity:1"
             id="path719" /></g><g
           id="g721"
           transform="translate(266,134.6533)"><path
             d="m 0,0 c 0,-5.523 -4.478,-10 -10,-10 -5.523,0 -10,4.477 -10,10 0,5.522 4.477,10 10,10 C -4.478,10 0,5.522 0,0"
             style="fill:#000000;fill-opacity:1;fill-rule:nonzero;stroke:none"
             id="path723" /></g><g
           id="g725"
           transform="translate(296.5215,50.5215)"><path
             d="m 0,0 c 0,-22.229 -18.292,-40.521 -40.521,-40.521 -22.23,0 -40.522,18.292 -40.522,40.521"
             style="fill:none;stroke:#000000;stroke-width:20;stroke-linecap:round;stroke-linejoin:round;stroke-miterlimit:10;stroke-dasharray:none;stroke-opacity:1"
             id="path727" /></g></g></g></g></svg>
