<?xml version="1.0" standalone="no"?>
<svg xmlns="http://www.w3.org/2000/svg" version="1.1" xmlns:xlink="http://www.w3.org/1999/xlink" width="512" height="512" x="0" y="0" viewBox="0 0 682.667 682.667" style="enable-background:new 0 0 512 512" xml:space="preserve"><g><defs stroke-width="14" style="stroke-width: 14;"><clipPath id="a" clipPathUnits="userSpaceOnUse" stroke-width="14" style="stroke-width: 14;"><path d="M0 512h512V0H0Z" fill="#000000" opacity="1" data-original="#000000" stroke-width="14" style="stroke-width: 14;"/></clipPath></defs><g clip-path="url(#a)" transform="matrix(1.33333 0 0 -1.33333 0 682.667)" stroke-width="14" style="stroke-width: 14;"><path d="M0 0h-401.664c-22.092 0-40.166-18.075-40.166-40.166V-313.3c0-22.092 18.074-40.163 40.166-40.163H.003c22.089 0 40.163 18.071 40.163 40.163v273.134C40.166-18.075 22.092 0 0 0Z" style="stroke-width: 14; stroke-linecap: round; stroke-linejoin: round; stroke-miterlimit: 10; stroke-dasharray: none; stroke-opacity: 1;" transform="translate(456.832 432.731)" fill="none" stroke="#000000" stroke-width="14" stroke-linecap="round" stroke-linejoin="round" stroke-miterlimit="10" stroke-dasharray="none" stroke-opacity="" data-original="#000000"/><path d="m0 0-207.576-138.385c-18.383-12.254-48.461-12.254-66.84 0L-481.996 0" style="stroke-width: 14; stroke-linecap: round; stroke-linejoin: round; stroke-miterlimit: 10; stroke-dasharray: none; stroke-opacity: 1;" transform="translate(496.998 384.531)" fill="none" stroke="#000000" stroke-width="14" stroke-linecap="round" stroke-linejoin="round" stroke-miterlimit="10" stroke-dasharray="none" stroke-opacity="" data-original="#000000"/></g></g></svg>