<?xml version="1.0" standalone="no"?>
<svg xmlns="http://www.w3.org/2000/svg" version="1.1" xmlns:xlink="http://www.w3.org/1999/xlink" width="512" height="512" x="0" y="0" viewBox="0 0 682.667 682.667" style="enable-background:new 0 0 512 512" xml:space="preserve"><g><defs stroke-width="14" style="stroke-width: 14;"><clipPath id="a" clipPathUnits="userSpaceOnUse" stroke-width="14" style="stroke-width: 14;"><path d="M0 512h512V0H0Z" fill="#000000" opacity="1" data-original="#000000" stroke-width="14" style="stroke-width: 14;"/></clipPath></defs><g clip-path="url(#a)" transform="matrix(1.33333 0 0 -1.33333 0 682.667)" stroke-width="14" style="stroke-width: 14;"><path d="M0 0v-160.667" style="stroke-width: 14; stroke-linecap: round; stroke-linejoin: round; stroke-miterlimit: 10; stroke-dasharray: none; stroke-opacity: 1;" transform="translate(255.996 175.667)" fill="none" stroke="#000000" stroke-width="14" stroke-linecap="round" stroke-linejoin="round" stroke-miterlimit="10" stroke-dasharray="none" stroke-opacity="" data-original="#000000"/><path d="M0 0h300.391a150.786 150.786 0 0 1-4.154 26.374l-33.579 134.293H37.725S21.819 97.019 4.153 26.374A150.784 150.784 0 0 1 0 0Z" style="stroke-width: 14; stroke-linecap: round; stroke-linejoin: round; stroke-miterlimit: 10; stroke-dasharray: none; stroke-opacity: 1;" transform="translate(105.805 336.333)" fill="none" stroke="#000000" stroke-width="14" stroke-linecap="round" stroke-linejoin="round" stroke-miterlimit="10" stroke-dasharray="none" stroke-opacity="" data-original="#000000"/><path d="M0 0h-300.391a150.542 150.542 0 0 1 31.539-102.771 150.548 150.548 0 0 1 118.653-57.895h.008c46.352 0 90.126 21.36 118.652 57.895A150.536 150.536 0 0 1 0 0Z" style="stroke-width: 14; stroke-linecap: round; stroke-linejoin: round; stroke-miterlimit: 10; stroke-dasharray: none; stroke-opacity: 1;" transform="translate(406.195 336.333)" fill="none" stroke="#000000" stroke-width="14" stroke-linecap="round" stroke-linejoin="round" stroke-miterlimit="10" stroke-dasharray="none" stroke-opacity="" data-original="#000000"/><path d="M0 0h224.934" style="stroke-width: 14; stroke-linecap: round; stroke-linejoin: round; stroke-miterlimit: 10; stroke-dasharray: none; stroke-opacity: 1;" transform="translate(143.53 15)" fill="none" stroke="#000000" stroke-width="14" stroke-linecap="round" stroke-linejoin="round" stroke-miterlimit="10" stroke-dasharray="none" stroke-opacity="" data-original="#000000"/></g></g></svg>