<svg id="Layer_1" enable-background="new 0 0 96 96" viewBox="0 0 96 96" xmlns="http://www.w3.org/2000/svg"><g id="XMLID_209_"><path id="XMLID_208_" d="m84.8 80h-73.6c-4 0-7.2-3.2-7.2-7.2v-49.6c0-4 3.2-7.2 7.2-7.2h73.6c4 0 7.2 3.2 7.2 7.2v49.6c0 4-3.2 7.2-7.2 7.2zm-73.6-62c-2.9 0-5.2 2.3-5.2 5.2v49.6c0 2.9 2.3 5.2 5.2 5.2h73.6c2.9 0 5.2-2.3 5.2-5.2v-49.6c0-2.9-2.3-5.2-5.2-5.2z"/></g><g id="XMLID_206_"><path id="XMLID_616_" d="m5.6 76.5c-.3 0-.6-.1-.8-.4-.3-.4-.2-1.1.2-1.4l32.3-26c.4-.3 1.1-.3 1.4.2.3.4.3 1.1-.2 1.4l-32.3 26c-.1.1-.4.2-.6.2zm84.8-.1c-.2 0-.4-.1-.6-.2l-34.1-27.4c-.4-.3-.5-1-.2-1.4s1-.5 1.4-.2l34.1 27.4c.4.3.5 1 .2 1.4-.2.3-.5.4-.8.4z"/></g><g id="XMLID_205_"><path id="XMLID_613_" d="m48.1 51.9c-2.9 0-5.8-1-8.8-3l-34.3-27.6c-.4-.3-.5-1-.2-1.4s1-.5 1.4-.2l34.3 27.6c5.2 3.4 10.1 3.5 15.1 0l31.4-25.2c.4-.3 1.1-.3 1.4.2.3.4.3 1.1-.2 1.4l-31.4 25.2c-2.8 2-5.7 3-8.7 3z"/></g></svg>