<?xml version="1.0" standalone="no"?>
<svg xmlns="http://www.w3.org/2000/svg" version="1.1" xmlns:xlink="http://www.w3.org/1999/xlink" width="512" height="512" x="0" y="0" viewBox="0 0 100 100" style="enable-background:new 0 0 512 512" xml:space="preserve" class=""><circle r="50" cx="50" cy="50" fill="#db0c63" shape="circle"/><g transform="matrix(0.5999999999999999,0,0,0.5999999999999999,20.000148773193363,19.999800109863305)"><linearGradient id="a" x1=".995" x2="104.132" y1="-.682" y2="105.985" gradientUnits="userSpaceOnUse"><stop stop-opacity="1" stop-color="#ffffff" offset="0"/><stop stop-opacity="1" stop-color="#ffffff" offset="1"/></linearGradient><path fill="url(#a)" d="M91.948 51.58a5.2 5.2 0 0 1 0-3.17l3.23-9.92a5.13 5.13 0 0 0-1.87-5.729l-8.44-6.14a5.093 5.093 0 0 1-1.86-2.56l-3.23-9.929a5.118 5.118 0 0 0-4.88-3.54H64.47c-1.08 0-2.14-.34-3.02-.98l-8.44-6.13a5.102 5.102 0 0 0-6.019 0l-8.45 6.13c-.87.64-1.93.98-3.01.98H25.092c-2.22 0-4.19 1.43-4.87 3.55l-3.23 9.92a5.121 5.121 0 0 1-1.87 2.57L6.693 32.76a5.13 5.13 0 0 0-1.87 5.73l3.23 9.919a5.2 5.2 0 0 1 0 3.17l-3.23 9.93a5.13 5.13 0 0 0 1.87 5.73l8.44 6.129c.87.64 1.52 1.54 1.86 2.57l3.22 9.92a5.133 5.133 0 0 0 4.88 3.549H35.53c1.08 0 2.13.34 3.01.97l8.45 6.14a5.102 5.102 0 0 0 6.019 0l8.45-6.14c.87-.63 1.93-.97 3.01-.97h10.439c2.22 0 4.19-1.43 4.87-3.55l3.23-9.92c.33-1.03.99-1.93 1.86-2.57l8.439-6.129a5.13 5.13 0 0 0 1.87-5.73zm-20.97-11.45c0 1.32-.52 2.56-1.449 3.49L49.81 63.33c-.89.89-2.15 1.4-3.47 1.4-1.32 0-2.59-.51-3.48-1.4L30.451 50.94c-1.91-1.91-1.91-5.03-.01-6.96 1.87-1.87 5.12-1.87 6.98-.01l8.91 8.91 16.228-16.23c1.87-1.84 5.13-1.84 6.97 0 .93.93 1.45 2.17 1.45 3.48z" opacity="1" data-original="url(#a)" class=""/></g></svg>