<svg version="1.1" id="Capa_1" xmlns="http://www.w3.org/2000/svg" xmlns:xlink="http://www.w3.org/1999/xlink" x="0px" y="0px" viewBox="0 0 512 512" style="enable-background:new 0 0 512 512;" xml:space="preserve">
<g>
	<path style="fill:none;stroke:#000000;stroke-width:15;stroke-linecap:round;stroke-linejoin:round;stroke-miterlimit:10;" d="&#10;&#9;&#9;M349.962,504.5c70.497,0,127.646-57.149,127.646-127.645v-30.313c-6.899,34.617-36.027,49.112-64.55,54.742&#10;&#9;&#9;c-19.507,3.85-34.816,19.159-38.666,38.666c-5.63,28.523-20.125,57.651-54.742,64.55H349.962z"/>
	<path style="fill:none;stroke:#000000;stroke-width:15;stroke-linecap:round;stroke-linejoin:round;stroke-miterlimit:10;" d="&#10;&#9;&#9;M235.915,429.003h-55.27c-15.734,0-28.489-12.755-28.489-28.488v-55.27c0-15.734,12.755-28.489,28.489-28.489h55.27&#10;&#9;&#9;c15.734,0,28.489,12.755,28.489,28.489v55.27C264.404,416.248,251.649,429.003,235.915,429.003z"/>
	<path style="fill:none;stroke:#000000;stroke-width:15;stroke-linecap:round;stroke-linejoin:round;stroke-miterlimit:10;" d="&#10;&#9;&#9;M235.915,274.911h-55.27c-15.734,0-28.489-12.755-28.489-28.489v-55.27c0-15.734,12.755-28.488,28.489-28.488h55.27&#10;&#9;&#9;c15.734,0,28.489,12.755,28.489,28.488v55.27C264.404,262.156,251.649,274.911,235.915,274.911z"/>
	
		<line style="fill:none;stroke:#000000;stroke-width:15;stroke-linecap:round;stroke-linejoin:round;stroke-miterlimit:10;" x1="224.103" y1="504.5" x2="319.649" y2="504.5"/>
	<path style="fill:none;stroke:#000000;stroke-width:15;stroke-linecap:round;stroke-linejoin:round;stroke-miterlimit:10;" d="&#10;&#9;&#9;M477.608,136.635v-28.924c0-27.354-22.175-49.529-49.529-49.529H147.608c-27.354,0-49.529,22.175-49.529,49.529v347.26&#10;&#9;&#9;c0,27.354,22.175,49.529,49.529,49.529h41.189"/>
	
		<line style="fill:none;stroke:#000000;stroke-width:15;stroke-linecap:round;stroke-linejoin:round;stroke-miterlimit:10;" x1="477.608" y1="346.542" x2="477.608" y2="173.028"/>
	
		<line style="fill:none;stroke:#000000;stroke-width:15;stroke-linecap:round;stroke-linejoin:round;stroke-miterlimit:10;" x1="307.406" y1="353.837" x2="423.53" y2="353.837"/>
	
		<line style="fill:none;stroke:#000000;stroke-width:15;stroke-linecap:round;stroke-linejoin:round;stroke-miterlimit:10;" x1="307.406" y1="391.922" x2="362.965" y2="391.922"/>
	
		<polyline style="fill:none;stroke:#000000;stroke-width:15;stroke-linecap:round;stroke-linejoin:round;stroke-miterlimit:10;" points="&#10;&#9;&#9;232.619,356.653 200.167,389.106 183.941,372.879 &#9;"/>
	
		<line style="fill:none;stroke:#000000;stroke-width:15;stroke-linecap:round;stroke-linejoin:round;stroke-miterlimit:10;" x1="307.406" y1="199.745" x2="423.53" y2="199.745"/>
	
		<line style="fill:none;stroke:#000000;stroke-width:15;stroke-linecap:round;stroke-linejoin:round;stroke-miterlimit:10;" x1="307.406" y1="237.831" x2="362.965" y2="237.831"/>
	
		<polyline style="fill:none;stroke:#000000;stroke-width:15;stroke-linecap:round;stroke-linejoin:round;stroke-miterlimit:10;" points="&#10;&#9;&#9;232.619,202.562 200.167,235.014 183.941,218.788 &#9;"/>
	
		<line style="fill:none;stroke:#000000;stroke-width:15;stroke-linecap:round;stroke-linejoin:round;stroke-miterlimit:10;" x1="245.743" y1="115.07" x2="329.944" y2="115.07"/>
	<path style="fill:none;stroke:#000000;stroke-width:15;stroke-linecap:round;stroke-linejoin:round;stroke-miterlimit:10;" d="&#10;&#9;&#9;M421.829,58.061c0-27.924-22.637-50.561-50.561-50.561H84.953c-27.924,0-50.561,22.637-50.561,50.561v354.496&#10;&#9;&#9;c0,27.924,22.637,50.561,50.561,50.561h13.804"/>
</g>
<g>
</g>
<g>
</g>
<g>
</g>
<g>
</g>
<g>
</g>
<g>
</g>
<g>
</g>
<g>
</g>
<g>
</g>
<g>
</g>
<g>
</g>
<g>
</g>
<g>
</g>
<g>
</g>
<g>
</g>
</svg>